<?xml version="1.0" encoding="utf-8"?>
<!-- Generator: Adobe Illustrator 16.0.0, SVG Export Plug-In . SVG Version: 6.00 Build 0)  -->
<!DOCTYPE svg PUBLIC "-//W3C//DTD SVG 1.1//EN" "http://www.w3.org/Graphics/SVG/1.1/DTD/svg11.dtd">
<svg version="1.1" id="Layer_1" xmlns="http://www.w3.org/2000/svg" xmlns:xlink="http://www.w3.org/1999/xlink" x="0px" y="0px"
	 width="32px" height="32px" viewBox="0 0 32 32" enable-background="new 0 0 32 32" xml:space="preserve">
<path fill="#FFFFFF" d="M18.5,32c0,0,6.375-8.654,6.375-16.667c0-8.836-0.039-11.125-8.875-11.125c-8.836,0-9.75,2.539-9.75,11.375
	C6.25,23.605,13.5,32,13.5,32H18.5z"/>
<path fill="#1877F2" d="M32,16.098C32,7.207,24.836,0,16,0C7.164,0,0,7.207,0,16.098C0,24.133,5.851,30.793,13.5,32V20.751H9.438
	v-4.653H13.5v-3.546c0-4.035,2.389-6.263,6.043-6.263c1.751,0,3.582,0.314,3.582,0.314v3.962h-2.018
	c-1.988,0-2.607,1.241-2.607,2.514v3.02h4.438l-0.709,4.653H18.5V32C26.148,30.793,32,24.133,32,16.098z"/>
</svg>
