<svg width="32" height="32" viewBox="0 0 32 32" fill="none" xmlns="http://www.w3.org/2000/svg">
<path d="M32 16C32 24.84 24.84 32 16 32C7.16 32 0 24.84 0 16C0 7.16 7.16 0 16 0C24.84 0 32 7.16 32 16Z" fill="url(#paint0_linear)"/>
<path d="M12.7249 23.5C12.1826 23.5 12.2799 23.2931 12.0852 22.7827L10.9062 17.1172L20.5403 10.7344L21.4999 11.8034L20.5403 14.3965L12.7249 23.5Z" fill="#C8DAEA"/>
<path d="M12.5 23.5C12.9286 23.5 13.1143 23.3047 13.3571 23.0814C13.7286 22.7326 18.5 18.1977 18.5 18.1977L15.5714 17.5L13.1524 18.4029L12.5 23.3605V23.5Z" fill="#A9C9DD"/>
<path d="M13.1524 18.4029L19.4565 23.2973C20.1729 23.7086 20.6939 23.5029 20.8762 22.5981L23.4422 9.87543C23.7027 8.76494 23.0384 8.27139 22.348 8.60042L7.29109 14.715C6.26211 15.1537 6.27514 15.7569 7.10874 16.0174L10.9772 17.2924L19.9254 11.3561C20.3422 11.0819 20.7329 11.2327 20.4203 11.5343L13.1524 18.4029Z" fill="url(#paint1_linear)"/>
<defs>
<linearGradient id="paint0_linear" x1="20.6893" y1="5.05733" x2="12.6893" y2="23.7237" gradientUnits="userSpaceOnUse">
<stop stop-color="#37AEE2"/>
<stop offset="1" stop-color="#1E96C8"/>
</linearGradient>
<linearGradient id="paint1_linear" x1="16.9285" y1="15.6672" x2="19.6516" y2="20.2532" gradientUnits="userSpaceOnUse">
<stop stop-color="#EFF7FC"/>
<stop offset="1" stop-color="white"/>
</linearGradient>
</defs>
</svg>
