<svg width="32" height="32" viewBox="0 0 32 32" fill="none" xmlns="http://www.w3.org/2000/svg">
<path d="M16 32C24.8366 32 32 24.8366 32 16C32 7.16344 24.8366 0 16 0C7.16344 0 0 7.16344 0 16C0 24.8366 7.16344 32 16 32Z" fill="#2CA4F5"/>
<path fill-rule="evenodd" clip-rule="evenodd" d="M23.3791 11.7137C24.1414 11.2764 24.727 10.5837 25.0028 9.7584C24.2891 10.1635 23.4988 10.4576 22.6576 10.616C21.9841 9.92912 21.0243 9.5 19.9621 9.5C17.9227 9.5 16.2691 11.0824 16.2691 13.0342C16.2691 13.3112 16.3018 13.581 16.3648 13.8396C13.2956 13.6923 10.5745 12.2852 8.75316 10.1469C8.43528 10.6688 8.25312 11.276 8.25312 11.9237C8.25312 13.15 8.90508 14.2317 9.89598 14.8655C9.29064 14.8472 8.72121 14.6882 8.22333 14.4235C8.22297 14.4382 8.22297 14.4529 8.22297 14.4679C8.22297 16.1803 9.49593 17.6087 11.1853 17.9335C10.8754 18.0142 10.5492 18.0575 10.2124 18.0575C9.97446 18.0575 9.74307 18.0353 9.51762 17.994C9.98751 19.3981 11.3513 20.42 12.9673 20.4484C11.7035 21.3964 10.1112 21.9615 8.38092 21.9615C8.08284 21.9615 7.7889 21.9447 7.5 21.912C9.13431 22.9148 11.0754 23.5 13.1609 23.5C19.9535 23.5 23.6681 18.1145 23.6681 13.444C23.6681 13.2908 23.6644 13.1384 23.6572 12.9868C24.3789 12.4884 25.0049 11.866 25.5 11.1572C24.8378 11.4384 24.126 11.6284 23.3791 11.7137Z" fill="white"/>
</svg>
