<svg width="32" height="32" viewBox="0 0 32 32" fill="none" xmlns="http://www.w3.org/2000/svg">
<path fill-rule="evenodd" clip-rule="evenodd" d="M16 32C24.8366 32 32 24.8366 32 16C32 7.16344 24.8366 0 16 0C7.16344 0 0 7.16344 0 16C0 19.1976 0.938016 22.1762 2.55389 24.6755C0.851298 29.5585 0 32 0 32C0 32 2.61079 31.2537 7.83238 29.7612C10.2232 31.1833 13.0162 32 16 32Z" fill="url(#paint0_linear)"/>
<path fill-rule="evenodd" clip-rule="evenodd" d="M23.2147 19.7568C22.8208 19.5411 20.8867 18.4973 20.5237 18.3498C20.1611 18.2025 19.8964 18.1257 19.6136 18.5172C19.3312 18.9076 18.5287 19.7821 18.2855 20.041C18.0412 20.3001 17.8063 20.3242 17.4121 20.108C17.0193 19.893 15.7427 19.4208 14.2623 17.9977C13.1102 16.8902 12.3547 15.5472 12.1356 15.1374C11.9161 14.727 12.134 14.518 12.3423 14.326C12.5292 14.1527 12.7609 13.8721 12.9703 13.6458C13.1789 13.4194 13.2527 13.2548 13.3962 12.9922C13.5398 12.7295 13.482 12.4928 13.3889 12.2885C13.2959 12.0848 12.568 10.081 12.264 9.26587C11.9599 8.45074 11.6212 8.57185 11.387 8.5627C11.1532 8.55463 10.8871 8.51067 10.6196 8.5008C10.3523 8.49057 9.91376 8.5749 9.53159 8.9621C9.14906 9.34948 8.07682 10.2807 8.00289 12.2544C7.92897 14.2268 9.29421 16.1875 9.48458 16.462C9.67513 16.7373 12.0916 21.0142 16.1075 22.7731C20.1243 24.5315 20.1453 23.9954 20.8822 23.9559C21.6196 23.9171 23.2909 23.0742 23.6606 22.1511C24.0298 21.2276 24.0594 20.4248 23.9656 20.2538C23.8714 20.083 23.6083 19.9719 23.2147 19.7568Z" fill="white"/>
<defs>
<linearGradient id="paint0_linear" x1="16" y1="0" x2="16" y2="32" gradientUnits="userSpaceOnUse">
<stop stop-color="#55C860"/>
<stop offset="1" stop-color="#3EBA4E"/>
</linearGradient>
</defs>
</svg>
